# xmcd
#
# Track frame offsets:
#   150
#   20225
#   33737
#   48705
#   63365
#   77722
#   91942
#   105375
#   123972
#   140575
#   155537
#
# Disc length: 2362 seconds
#
# Revision: 2
# Processed by: cddbd v1.5.1PL0 Copyright (c) Steve Scherf et al.
# Submitted via: Media_Universe 3.0
#
DISCID=9309380b
DTITLE=Jason McCoy - Honky Tonk Sonatas
DYEAR=2000
DGENRE=Country
TTITLE0=I've Got A Weakness
TTITLE1=Kind Of Like It's Love
TTITLE2=Whisper
TTITLE3=Ten Million Teardrops
TTITLE4=I Would For You
TTITLE5=My Love Will Follow You
TTITLE6=Bury My Heart
TTITLE7=Fix Anything
TTITLE8=Broke Down
TTITLE9=Doin' Time In Bakersfield (Featuring Gary Allan)
TTITLE10=Don't Look Away
EXTD=
EXTT0=
EXTT1=
EXTT2=
EXTT3=
EXTT4=
EXTT5=
EXTT6=
EXTT7=
EXTT8=
EXTT9=
EXTT10=
PLAYORDER=
